# Blender v2.77 (sub 0) OBJ File: ''
# www.blender.org
o Cone
v 0.000000 0.036051 -1.831107
v 0.357231 0.036051 -1.795922
v 0.700734 0.036051 -1.691722
v 1.017308 0.036051 -1.522510
v 1.294788 0.036051 -1.294788
v 1.522510 0.036051 -1.017308
v 1.691722 0.036051 -0.700734
v 1.795922 0.036051 -0.357231
v 1.831107 0.036051 -0.000000
v 0.000000 3.698264 0.000000
v 1.795923 0.036051 0.357231
v 1.691722 0.036051 0.700734
v 1.522510 0.036051 1.017308
v 1.294788 0.036051 1.294788
v 1.017308 0.036051 1.522510
v 0.700734 0.036051 1.691722
v 0.357231 0.036051 1.795923
v -0.000001 0.036051 1.831107
v -0.357232 0.036051 1.795922
v -0.700735 0.036051 1.691722
v -1.017309 0.036051 1.522509
v -1.294789 0.036051 1.294787
v -1.522510 0.036051 1.017307
v -1.691723 0.036051 0.700733
v -1.795923 0.036051 0.357230
v -1.831107 0.036051 -0.000002
v -1.795922 0.036051 -0.357233
v -1.691721 0.036051 -0.700736
v -1.522508 0.036051 -1.017310
v -1.294786 0.036051 -1.294790
v -1.017306 0.036051 -1.522511
v -0.700732 0.036051 -1.691723
v -0.357228 0.036051 -1.795923
vt 0.8583 -0.0103
vt 0.5347 1.1783
vt 0.7682 -0.0385
vt 0.6685 -0.0577
vt 0.5628 -0.0671
vt 0.4552 -0.0665
vt 0.3500 -0.0557
vt 0.2510 -0.0353
vt 0.1622 -0.0059
vt 0.0869 0.0312
vt 1.5252 -1.4569
vt 1.2043 -0.2780
vt 1.4462 -1.4877
vt 1.3546 -1.5096
vt 1.2539 -1.5218
vt 1.1479 -1.5238
vt 1.0408 -1.5156
vt 0.9366 -1.4975
vt 0.8393 -1.4702
vt 0.7528 -1.4347
vt -0.2335 -0.9667
vt -0.4755 0.2430
vt -0.3252 -0.9886
vt -0.4259 -1.0008
vt -0.5319 -1.0028
vt -0.6390 -0.9946
vt -0.7432 -0.9765
vt -0.8404 -0.9491
vt -0.9270 -0.9136
vt 0.1436 -0.0004
vt -0.3079 -1.1571
vt 0.2314 -0.0330
vt 0.3214 -0.0787
vt 0.4103 -0.1360
vt 0.4947 -0.2025
vt 0.5712 -0.2758
vt 0.6371 -0.3531
vt 0.6896 -0.4312
vt 0.7269 -0.5074
vt 0.9351 0.0259
vt 1.1487 0.5155
vt 1.2348 -0.2670
vt 2.0060 -0.1678
vt 2.0646 -0.0752
vt 2.1045 0.0269
vt 2.1241 0.1347
vt 2.1227 0.2439
vt 2.1004 0.3505
vt 2.0579 0.4503
vt 1.9970 0.5395
vt 1.9199 0.6146
vt 1.8297 0.6728
vt 1.7298 0.7118
vt 1.6240 0.7301
vt 1.5165 0.7271
vt 1.4112 0.7028
vt 1.3124 0.6581
vt 1.2237 0.5949
vt 1.0901 0.4229
vt 1.0502 0.3208
vt 1.0306 0.2130
vt 1.0320 0.1037
vt 1.0543 -0.0029
vt 1.0968 -0.1027
vt 1.1577 -0.1918
vt 1.3250 -0.3251
vt 1.4249 -0.3641
vt 1.5307 -0.3825
vt 1.6382 -0.3794
vt 1.7435 -0.3551
vt 1.8423 -0.3105
vt 1.9310 -0.2472
vn 0.0878 0.4455 -0.8910
vn 0.2599 0.4455 -0.8567
vn 0.4220 0.4455 -0.7896
vn 0.5680 0.4455 -0.6921
vn 0.6921 0.4455 -0.5680
vn 0.7896 0.4455 -0.4220
vn 0.8567 0.4455 -0.2599
vn 0.8910 0.4455 -0.0878
vn 0.8910 0.4455 0.0878
vn 0.8567 0.4455 0.2599
vn 0.7896 0.4455 0.4220
vn 0.6921 0.4455 0.5680
vn 0.5680 0.4455 0.6921
vn 0.4220 0.4455 0.7896
vn 0.2599 0.4455 0.8567
vn 0.0878 0.4455 0.8910
vn -0.0878 0.4455 0.8910
vn -0.2599 0.4455 0.8567
vn -0.4220 0.4455 0.7896
vn -0.5680 0.4455 0.6921
vn -0.6921 0.4455 0.5680
vn -0.7896 0.4455 0.4220
vn -0.8567 0.4455 0.2599
vn -0.8910 0.4455 0.0878
vn -0.8910 0.4455 -0.0878
vn -0.8567 0.4455 -0.2599
vn -0.7896 0.4455 -0.4220
vn -0.6921 0.4455 -0.5680
vn -0.5680 0.4455 -0.6921
vn -0.4220 0.4455 -0.7896
vn -0.2599 0.4455 -0.8567
vn -0.0878 0.4455 -0.8910
vn 0.0000 -1.0000 0.0000
s off
f 1/1/1 10/2/1 2/3/1
f 2/3/2 10/2/2 3/4/2
f 3/4/3 10/2/3 4/5/3
f 4/5/4 10/2/4 5/6/4
f 5/6/5 10/2/5 6/7/5
f 6/7/6 10/2/6 7/8/6
f 7/8/7 10/2/7 8/9/7
f 8/9/8 10/2/8 9/10/8
f 9/11/9 10/12/9 11/13/9
f 11/13/10 10/12/10 12/14/10
f 12/14/11 10/12/11 13/15/11
f 13/15/12 10/12/12 14/16/12
f 14/16/13 10/12/13 15/17/13
f 15/17/14 10/12/14 16/18/14
f 16/18/15 10/12/15 17/19/15
f 17/19/16 10/12/16 18/20/16
f 18/21/17 10/22/17 19/23/17
f 19/23/18 10/22/18 20/24/18
f 20/24/19 10/22/19 21/25/19
f 21/25/20 10/22/20 22/26/20
f 22/26/21 10/22/21 23/27/21
f 23/27/22 10/22/22 24/28/22
f 24/28/23 10/22/23 25/29/23
f 25/30/24 10/31/24 26/32/24
f 26/32/25 10/31/25 27/33/25
f 27/33/26 10/31/26 28/34/26
f 28/34/27 10/31/27 29/35/27
f 29/35/28 10/31/28 30/36/28
f 30/36/29 10/31/29 31/37/29
f 31/37/30 10/31/30 32/38/30
f 32/38/31 10/31/31 33/39/31
f 33/40/32 10/2/32 1/1/32
f 17/41/33 25/42/33 33/43/33
f 33/43/33 1/44/33 2/45/33
f 2/45/33 3/46/33 33/43/33
f 4/47/33 5/48/33 6/49/33
f 6/49/33 7/50/33 8/51/33
f 8/51/33 9/52/33 11/53/33
f 11/53/33 12/54/33 8/51/33
f 13/55/33 14/56/33 17/41/33
f 15/57/33 16/58/33 17/41/33
f 17/41/33 18/59/33 19/60/33
f 19/60/33 20/61/33 17/41/33
f 21/62/33 22/63/33 23/64/33
f 23/64/33 24/65/33 21/62/33
f 25/42/33 26/66/33 27/67/33
f 27/67/33 28/68/33 29/69/33
f 29/69/33 30/70/33 31/71/33
f 31/71/33 32/72/33 33/43/33
f 33/43/33 3/46/33 4/47/33
f 4/47/33 6/49/33 33/43/33
f 8/51/33 12/54/33 13/55/33
f 14/56/33 15/57/33 17/41/33
f 17/41/33 20/61/33 21/62/33
f 21/62/33 24/65/33 25/42/33
f 25/42/33 27/67/33 29/69/33
f 29/69/33 31/71/33 33/43/33
f 33/43/33 6/49/33 8/51/33
f 8/51/33 13/55/33 33/43/33
f 17/41/33 21/62/33 25/42/33
f 25/42/33 29/69/33 33/43/33
f 33/43/33 13/55/33 17/41/33
