# Blender v2.77 (sub 0) OBJ File: ''
# www.blender.org
o Cube
v 1.000000 -1.000000 -1.000000
v 1.000000 -1.000000 1.000000
v -1.000000 -1.000000 -1.000000
v 1.000000 1.000000 -0.999999
v 0.999999 1.000000 1.000001
v -1.000000 1.000000 1.000000
v -1.000000 1.000000 -1.000000
v 1.000000 -1.000000 -1.000000
v 1.000000 -1.000000 -1.000000
v 1.000000 -1.000000 1.000000
v 1.000000 1.000000 -0.999999
v 1.000000 1.000000 -0.999999
v 1.000000 1.000000 -0.999999
v 0.999999 1.000000 1.000001
v 0.999999 1.000000 1.000001
v -1.000000 1.000000 -1.000000
v -1.000000 1.000000 -1.000000
v -1.000000 1.000000 -1.000000
vt 0.3694 0.7071
vt 0.0000 0.3536
vt 0.3694 0.3536
vt 0.3694 0.8536
vt 0.7388 0.5000
vt 0.7388 0.8536
vt 0.3694 0.3536
vt 0.0000 0.0000
vt 0.3694 0.0000
vt 1.0000 1.0000
vt 0.7388 0.7500
vt 1.0000 0.5000
vt 0.6306 0.5000
vt 0.3694 0.2500
vt 0.6306 0.0000
vt 0.8918 0.5000
vt 0.6306 0.2500
vt 0.8918 0.0000
vn 0.0000 1.0000 0.0000
vn 1.0000 -0.0000 0.0000
vn 0.0000 0.0000 -1.0000
s off
f 17/1/1 15/2/1 12/3/1
f 11/4/2 10/5/2 8/6/2
f 1/7/3 7/8/3 13/9/3
f 18/10/1 6/11/1 5/12/1
f 4/13/2 14/14/2 2/15/2
f 9/16/3 3/17/3 16/18/3
